<?xml version="1.0" encoding="UTF-8" standalone="no"?>
<svg
   xmlns:dc="http://purl.org/dc/elements/1.1/"
   xmlns:cc="http://creativecommons.org/ns#"
   xmlns:rdf="http://www.w3.org/1999/02/22-rdf-syntax-ns#"
   xmlns:svg="http://www.w3.org/2000/svg"
   xmlns="http://www.w3.org/2000/svg"
   xmlns:sodipodi="http://sodipodi.sourceforge.net/DTD/sodipodi-0.dtd"
   xmlns:inkscape="http://www.inkscape.org/namespaces/inkscape"
   fill="#4d4d4d"
   height="48"
   version="1.1"
   viewBox="0 0 48 48"
   width="48"
   id="svg4"
   sodipodi:docname="icon_07.svg"
   inkscape:version="0.92.4 (5da689c313, 2019-01-14)">
  <metadata
     id="metadata10">
    <rdf:RDF>
      <cc:Work
         rdf:about="">
        <dc:format>image/svg+xml</dc:format>
        <dc:type
           rdf:resource="http://purl.org/dc/dcmitype/StillImage" />
        <dc:title></dc:title>
      </cc:Work>
    </rdf:RDF>
  </metadata>
  <defs
     id="defs8">
    <inkscape:perspective
       sodipodi:type="inkscape:persp3d"
       inkscape:vp_x="0 : 24 : 1"
       inkscape:vp_y="0 : 1000 : 0"
       inkscape:vp_z="48 : 24 : 1"
       inkscape:persp3d-origin="24 : 16 : 1"
       id="perspective933" />
  </defs>
  <sodipodi:namedview
     pagecolor="#40463d"
     bordercolor="#666666"
     borderopacity="1"
     objecttolerance="10"
     gridtolerance="10"
     guidetolerance="10"
     inkscape:pageopacity="0"
     inkscape:pageshadow="2"
     inkscape:window-width="1074"
     inkscape:window-height="1022"
     id="namedview6"
     showgrid="false"
     inkscape:zoom="11.313708"
     inkscape:cx="27.528799"
     inkscape:cy="22.713878"
     inkscape:window-x="413"
     inkscape:window-y="254"
     inkscape:window-maximized="0"
     inkscape:current-layer="svg4" />
  <path
     style="fill:#bec8c8;fill-opacity:1;stroke-width:0.87318349"
     d="M 12.740234,4.4980469 C 8.98763,10.998698 5.2350259,17.499349 1.4824219,24 5.2350259,30.500651 8.98763,37.001302 12.740234,43.501953 c 7.506511,0 15.013021,0 22.519532,0 C 39.01237,37.001302 42.764974,30.500651 46.517578,24 42.764974,17.499349 39.01237,10.998698 35.259766,4.4980469 c -7.506511,0 -15.013021,0 -22.519532,0 z m 2.091797,3.6230469 c 6.111979,0 12.223959,0 18.335938,0 C 36.223959,13.414063 39.279948,18.707031 42.335938,24 c -3.05599,5.292969 -6.111979,10.585937 -9.167969,15.878906 -6.111979,0 -12.223959,0 -18.335938,0 C 11.776041,34.585937 8.720052,29.292969 5.6640625,24 8.720052,18.707031 11.776042,13.414063 14.832031,8.1210938 Z"
     id="path4528"
     inkscape:connector-curvature="0" />
  <path
     sodipodi:type="star"
     style="fill:#bec8c8;fill-opacity:1"
     id="path992"
     sodipodi:sides="6"
     sodipodi:cx="24"
     sodipodi:cy="24"
     sodipodi:r1="6.5012021"
     sodipodi:r2="5.6302061"
     sodipodi:arg1="0"
     sodipodi:arg2="0.52359878"
     inkscape:flatsided="true"
     inkscape:rounded="0"
     inkscape:randomized="0"
     d="m 30.501202,24 -3.250601,5.630206 H 20.749399 L 17.498798,24 l 3.250601,-5.630206 6.501202,0 z" />
</svg>
