<?xml version="1.0" encoding="UTF-8" standalone="no"?>
<!-- Created with Inkscape (http://www.inkscape.org/) -->

<svg
   xmlns:dc="http://purl.org/dc/elements/1.1/"
   xmlns:cc="http://creativecommons.org/ns#"
   xmlns:rdf="http://www.w3.org/1999/02/22-rdf-syntax-ns#"
   xmlns:svg="http://www.w3.org/2000/svg"
   xmlns="http://www.w3.org/2000/svg"
   xmlns:sodipodi="http://sodipodi.sourceforge.net/DTD/sodipodi-0.dtd"
   xmlns:inkscape="http://www.inkscape.org/namespaces/inkscape"
   version="1.1"
   width="48"
   height="48"
   id="svg2"
   sodipodi:docname="site.svg"
   inkscape:version="0.92.5 (2060ec1f9f, 2020-04-08)">
  <sodipodi:namedview
     pagecolor="#ffffff"
     bordercolor="#666666"
     borderopacity="1"
     objecttolerance="10"
     gridtolerance="10"
     guidetolerance="10"
     inkscape:pageopacity="0"
     inkscape:pageshadow="2"
     inkscape:window-width="1900"
     inkscape:window-height="1030"
     id="namedview6"
     showgrid="true"
     showguides="false"
     inkscape:zoom="13.906433"
     inkscape:cx="37.47571"
     inkscape:cy="18.983085"
     inkscape:window-x="10"
     inkscape:window-y="10"
     inkscape:window-maximized="0"
     inkscape:current-layer="layer1">
    <inkscape:grid
       type="xygrid"
       id="grid827" />
  </sodipodi:namedview>
  <metadata
     id="metadata8">
    <rdf:RDF>
      <cc:Work
         rdf:about="">
        <dc:format>image/svg+xml</dc:format>
        <dc:type
           rdf:resource="http://purl.org/dc/dcmitype/StillImage" />
        <dc:title></dc:title>
      </cc:Work>
    </rdf:RDF>
  </metadata>
  <defs
     id="defs6">
    <inkscape:perspective
       sodipodi:type="inkscape:persp3d"
       inkscape:vp_x="0 : 24 : 1"
       inkscape:vp_y="0 : 1000 : 0"
       inkscape:vp_z="48 : 24 : 1"
       inkscape:persp3d-origin="24 : 16 : 1"
       id="perspective816" />
  </defs>
  <g
     inkscape:groupmode="layer"
     id="layer1"
     inkscape:label="Layer 1"
     style="display:inline">
    <path
       style="fill:#000000;fill-opacity:0.2874109;stroke:#ffffff;stroke-width:2;stroke-linecap:butt;stroke-linejoin:bevel;stroke-miterlimit:4;stroke-dasharray:none;stroke-opacity:1"
       d="M 6.416666,2 V 46 H 41.25 V 10.25 L 33,2 Z"
       id="path4518"
       inkscape:connector-curvature="0" />
  </g>
  <g
     inkscape:label="Layer 1 copy"
     id="g1514"
     inkscape:groupmode="layer"
     style="display:inline">
    <g
       style="fill:#ffffff;fill-opacity:1;stroke:none;stroke-opacity:1"
       id="g1715"
       transform="matrix(0.05370171,0,0,0.05370171,9.7527497,5.7655793)">
      <g
         id="g1703"
         style="fill:#ffffff;fill-opacity:1;stroke:none;stroke-opacity:1">
	<g
   id="g1701"
   style="fill:#ffffff;fill-opacity:1;stroke:none;stroke-opacity:1">
		<path
   id="path1699"
   d="M 256,0 C 114.62,0 0,114.62 0,256 0,397.38 114.62,512 256,512 397.38,512 512,397.38 512,256 512,114.62 397.38,0 256,0 Z m -83.789,41.609 c -24.934,27.119 -44.68,66.125 -56.755,111.992 H 49.749 c 25.43,-50.86 69.12,-91.077 122.462,-111.992 z M 25.6,256 c 0,-26.999 5.077,-52.727 13.662,-76.8 h 70.494 c -4.608,24.294 -7.356,49.963 -7.356,76.8 0,26.837 2.748,52.506 7.347,76.8 H 39.262 C 30.677,308.727 25.6,283 25.6,256 Z m 24.149,102.4 h 65.707 c 12.083,45.867 31.821,84.872 56.755,111.991 C 118.869,449.476 75.179,409.259 49.749,358.4 Z M 243.2,485.188 C 199.39,476.936 161.323,426.948 141.841,358.4 H 243.2 Z m 0,-152.388 H 135.74 C 130.816,308.634 128,282.803 128,256 c 0,-26.803 2.816,-52.634 7.74,-76.8 H 243.2 Z m 0,-179.2 H 141.841 C 161.323,85.052 199.39,35.063 243.2,26.812 Z m 219.051,0 H 396.544 C 384.461,107.733 364.723,68.727 339.789,41.608 393.131,62.524 436.821,102.741 462.251,153.6 Z M 268.8,26.812 c 43.81,8.252 81.877,58.24 101.359,126.788 H 268.8 Z m 0,152.388 h 107.46 c 4.924,24.166 7.74,49.997 7.74,76.8 0,26.803 -2.816,52.634 -7.74,76.8 H 268.8 Z m 0,305.988 V 358.4 H 370.159 C 350.677,426.948 312.61,476.937 268.8,485.188 Z m 70.989,-14.797 c 24.934,-27.127 44.672,-66.125 56.755,-111.991 h 65.707 c -25.43,50.859 -69.12,91.076 -122.462,111.991 z M 402.244,332.8 c 4.608,-24.294 7.356,-49.963 7.356,-76.8 0,-26.837 -2.748,-52.506 -7.347,-76.8 h 70.494 c 8.576,24.073 13.653,49.801 13.653,76.8 0,27 -5.077,52.727 -13.662,76.8 z"
   inkscape:connector-curvature="0"
   style="fill:#ffffff;fill-opacity:1;stroke:none;stroke-opacity:1" />

	</g>

</g>
    </g>
  </g>
</svg>
