<?xml version="1.0" encoding="UTF-8" standalone="no"?>
<!-- Created with Inkscape (http://www.inkscape.org/) -->

<svg
   xmlns:dc="http://purl.org/dc/elements/1.1/"
   xmlns:cc="http://creativecommons.org/ns#"
   xmlns:rdf="http://www.w3.org/1999/02/22-rdf-syntax-ns#"
   xmlns:svg="http://www.w3.org/2000/svg"
   xmlns="http://www.w3.org/2000/svg"
   xmlns:sodipodi="http://sodipodi.sourceforge.net/DTD/sodipodi-0.dtd"
   xmlns:inkscape="http://www.inkscape.org/namespaces/inkscape"
   version="1.1"
   width="48"
   height="48"
   id="svg2"
   sodipodi:docname="webp.svg"
   inkscape:version="0.92.5 (2060ec1f9f, 2020-04-08)">
  <sodipodi:namedview
     pagecolor="#ffffff"
     bordercolor="#666666"
     borderopacity="1"
     objecttolerance="10"
     gridtolerance="10"
     guidetolerance="10"
     inkscape:pageopacity="0"
     inkscape:pageshadow="2"
     inkscape:window-width="1900"
     inkscape:window-height="1030"
     id="namedview6"
     showgrid="true"
     showguides="false"
     inkscape:zoom="9.8333333"
     inkscape:cx="-1.6742066"
     inkscape:cy="14.097706"
     inkscape:window-x="10"
     inkscape:window-y="10"
     inkscape:window-maximized="0"
     inkscape:current-layer="g1514">
    <inkscape:grid
       type="xygrid"
       id="grid827" />
  </sodipodi:namedview>
  <metadata
     id="metadata8">
    <rdf:RDF>
      <cc:Work
         rdf:about="">
        <dc:format>image/svg+xml</dc:format>
        <dc:type
           rdf:resource="http://purl.org/dc/dcmitype/StillImage" />
        <dc:title></dc:title>
      </cc:Work>
    </rdf:RDF>
  </metadata>
  <defs
     id="defs6">
    <inkscape:perspective
       sodipodi:type="inkscape:persp3d"
       inkscape:vp_x="0 : 24 : 1"
       inkscape:vp_y="0 : 1000 : 0"
       inkscape:vp_z="48 : 24 : 1"
       inkscape:persp3d-origin="24 : 16 : 1"
       id="perspective816" />
  </defs>
  <g
     inkscape:groupmode="layer"
     id="layer1"
     inkscape:label="Layer 1"
     style="display:inline">
    <path
       style="fill:#000000;fill-opacity:0.2874109;stroke:#80fa9b;stroke-width:2;stroke-linecap:butt;stroke-linejoin:bevel;stroke-miterlimit:4;stroke-dasharray:none;stroke-opacity:1"
       d="M 6.416666,2 V 46 H 41.25 V 10.25 L 33,2 Z"
       id="path4518"
       inkscape:connector-curvature="0" />
  </g>
  <g
     inkscape:label="Layer 1 copy"
     id="g1514"
     inkscape:groupmode="layer"
     style="display:inline">
    <path
       inkscape:connector-curvature="0"
       d="m 15.89576,22.572637 c 1.784429,2.319745 4.10424,0.713733 4.461076,0.892216 0.356836,0.17848 0.535381,0.535316 0.356901,1.249115 0,0 -0.558818,0.550195 -0.713737,1.249049 0,0 -0.356898,1.070696 -0.178798,1.249114 0.178096,0.178418 0.456962,0.38442 0.728675,0.253898 0,0 0.54413,0.593871 1.234234,0.457411 0,0 0.669164,0.357599 1.114568,0.252425 0,0 0.667821,0.418396 1.183086,0.105431 0.515265,0.3129 1.183151,-0.105431 1.183151,-0.105431 0.445404,0.105431 1.114568,-0.252425 1.114568,-0.252425 0.690042,0.136334 1.234169,-0.457411 1.234169,-0.457411 0.271778,0.130522 0.550261,-0.07541 0.728679,-0.253898 0.178418,-0.17848 -0.178418,-1.249114 -0.178418,-1.249114 -0.154985,-0.698854 -0.713799,-1.249049 -0.713799,-1.249049 -0.178418,-0.713799 0,-1.0707 0.356901,-1.249115 0.356898,-0.178418 2.676643,1.427529 4.461076,-0.892216 1.78443,-2.319749 0.07708,-4.466124 -0.101407,-5.00144 0,0 0.32446,-4.099196 -0.233142,-5.415105 -1.389986,-3.280357 -2.922052,-4.238023 -7.851778,-4.238023 -4.929727,0 -6.461727,0.957858 -7.851713,4.238023 -0.557668,1.316036 -0.233207,5.415105 -0.233207,5.415105 -0.1781,0.535316 -1.885519,2.681372 -0.101085,5.00144 z M 26.223671,18 c 1.070631,-0.691447 2.855064,-1.382959 3.650661,-0.379185 0.525737,0.663287 0.1288,2.588458 -0.795597,3.323523 -0.9244,0.735062 -2.364384,0.289976 -3.263114,-0.401536 C 24.916891,19.85129 25.152975,18.691446 26.223671,18 Z m -2.141588,3.903473 c 0,0 1.472873,1.043304 1.104737,1.804227 -0.368141,0.760928 -1.104737,-0.532826 -1.104737,-0.532826 0,0 -0.736273,1.293688 -1.104732,0.532826 -0.368456,-0.760858 1.104732,-1.804227 1.104732,-1.804227 z M 18.289838,17.620815 C 19.085435,16.617041 20.869676,17.308553 21.940564,18 c 1.070888,0.691446 1.307034,1.851355 0.408112,2.542802 -0.898919,0.691446 -2.338841,1.136659 -3.263111,0.401536 -0.924274,-0.735126 -1.321403,-2.660236 -0.795727,-3.323523 z"
       id="path1935"
       style="stroke-width:0.06385739;stroke:none;stroke-opacity:1;fill:#80fa9b;fill-opacity:1" />
    <path
       inkscape:connector-curvature="0"
       d="m 37.145837,32.779474 c -1.110413,-0.434932 -2.754742,-0.144957 -4.037317,0.24534 l -5.63369,-2.153909 c 3.330673,-1.306013 6.127561,-2.404999 6.279224,-2.484565 0.382698,-0.200705 1.044834,-0.07803 1.903589,0.32344 0.858752,0.401472 2.052119,0.379185 2.408955,-0.502176 0.356836,-0.881361 -0.7585,-1.550137 -0.914374,-1.629703 -0.155878,-0.07957 -0.234227,-0.489023 -0.234227,-0.489023 0,0 0.825291,-0.513028 0.646873,-1.323443 -0.178418,-0.810415 -1.215653,-1.598543 -2.565151,-1.107798 -1.349497,0.490746 -2.15244,2.565089 -2.15244,2.565089 l -8.765196,3.351108 -8.764874,-3.351108 c 0,0 -0.803004,-2.074408 -2.152505,-2.565089 -1.349497,-0.49068 -2.386667,0.297383 -2.56515,1.107798 -0.17848,0.810415 0.646876,1.323443 0.646876,1.323443 0,0 -0.07803,0.409262 -0.234166,0.489023 -0.156131,0.07976 -1.271462,0.748342 -0.914565,1.629703 0.356898,0.881361 1.550268,0.903709 2.40902,0.502176 0.858755,-0.401536 1.520826,-0.524145 1.903589,-0.32344 0.151663,0.07957 2.948486,1.178552 6.279224,2.484565 l -5.633755,2.153909 c -1.282575,-0.390297 -2.926839,-0.680272 -4.037256,-0.24534 -1.078103,0.422289 -1.427594,1.9852 -0.278863,2.503211 1.148731,0.518011 1.884813,0.0507 1.918274,0.284931 0.03347,0.234228 0.591129,2.040944 2.130157,1.673064 1.539028,-0.367883 1.048409,-1.695224 1.20454,-1.829003 0.07389,-0.06335 3.966825,-1.593882 8.089454,-3.210623 4.122699,1.616614 8.015635,3.147402 8.089266,3.210492 0.156131,0.134102 -0.334614,1.460994 1.204475,1.829004 1.539094,0.36801 2.096696,-1.438706 2.130157,-1.673061 0.03347,-0.234357 0.769543,0.233207 1.918274,-0.284934 1.148731,-0.518138 0.799559,-2.080792 -0.278418,-2.503081 z"
       id="path1937"
       style="stroke-width:0.06385739;stroke:none;stroke-opacity:1;fill:#80fa9b;fill-opacity:1" />
  </g>
</svg>
